<svg xmlns="http://www.w3.org/2000/svg" version="1.1" xmlns:xlink="http://www.w3.org/1999/xlink" xmlns:svgjs="http://svgjs.dev/svgjs" width="1000" height="623" viewBox="0 0 1000 623"><g transform="matrix(1,0,0,1,-0.6060606060606233,0.2522267206477409)"><svg viewBox="0 0 396 247" data-background-color="#ffffff" preserveAspectRatio="xMidYMid meet" height="623" width="1000" xmlns="http://www.w3.org/2000/svg" xmlns:xlink="http://www.w3.org/1999/xlink"><defs></defs><g id="tight-bounds" transform="matrix(1,0,0,1,0.2400000000000091,-0.09999999999999432)"><svg viewBox="0 0 395.52 247.2" height="247.2" width="395.52"><g><svg></svg></g><g><svg viewBox="0 0 395.52 247.2" height="247.2" width="395.52"><g transform="matrix(1,0,0,1,82.79981214484678,47.215199999999996)"><svg viewBox="0 0 229.92037571030642 152.7696" height="152.7696" width="229.92037571030642"><g><svg viewBox="0 0 229.92037571030642 152.7696" height="152.7696" width="229.92037571030642"><g><svg viewBox="0 0 229.92037571030642 152.7696" height="152.7696" width="229.92037571030642"><g><svg viewBox="0 0 229.92037571030642 152.7696" height="152.7696" width="229.92037571030642"><g><svg viewBox="0 0 229.92037571030642 152.7696" height="152.7696" width="229.92037571030642"><g><svg viewBox="0 0 229.92037571030642 152.7696" height="152.7696" width="229.92037571030642"><g transform="matrix(1,0,0,1,0,0)"><svg width="229.92037571030642" viewBox="4.4 -35.4 54.029999908125 35.9" height="152.7696" data-palette-color="#000000"><path d="M6.45 0L6.45 0Q5.55 0 4.98-0.6 4.4-1.2 4.4-2.05L4.4-2.05 4.4-33Q4.4-33.85 4.98-34.43 5.55-35 6.4-35L6.4-35 23.95-35Q24.8-35 25.4-34.45 26-33.9 26-33.05L26-33.05Q26-32.25 25.4-31.7 24.8-31.15 23.95-31.15L23.95-31.15 8.2-31.15 8.5-31.55 8.5-19.3 8.25-19.85 21.7-19.85Q22.55-19.85 23.15-19.28 23.75-18.7 23.75-17.85L23.75-17.85Q23.75-17.1 23.15-16.53 22.55-15.95 21.7-15.95L21.7-15.95 8.15-15.95 8.5-16.4 8.5-2.05Q8.5-1.2 7.9-0.6 7.3 0 6.45 0ZM57.4-32.7L57.4-32.7Q58.25-32.25 58.37-31.35 58.5-30.45 57.9-29.7L57.9-29.7Q57.45-29.05 56.75-29 56.05-28.95 55.35-29.3L55.35-29.3Q53.7-30.3 51.8-30.88 49.9-31.45 47.8-31.45L47.8-31.45Q44.85-31.45 42.4-30.43 39.95-29.4 38.15-27.55 36.35-25.7 35.35-23.15 34.35-20.6 34.35-17.5L34.35-17.5Q34.35-14.2 35.4-11.6 36.45-9 38.27-7.18 40.1-5.35 42.52-4.4 44.95-3.45 47.8-3.45L47.8-3.45Q49.85-3.45 51.75-4 53.65-4.55 55.35-5.6L55.35-5.6Q56.05-5.95 56.75-5.85 57.45-5.75 57.95-5.15L57.95-5.15Q58.55-4.35 58.4-3.48 58.25-2.6 57.45-2.2L57.45-2.2Q56.2-1.45 54.6-0.83 53-0.2 51.27 0.15 49.55 0.5 47.8 0.5L47.8 0.5Q44.2 0.5 41-0.75 37.8-2 35.35-4.35 32.9-6.7 31.47-10.03 30.05-13.35 30.05-17.5L30.05-17.5Q30.05-21.4 31.4-24.65 32.75-27.9 35.17-30.3 37.6-32.7 40.82-34.05 44.05-35.4 47.8-35.4L47.8-35.4Q50.4-35.4 52.87-34.7 55.35-34 57.4-32.7Z" opacity="1" transform="matrix(1,0,0,1,0,0)" fill="#000000" class="undefined-text-0" data-fill-palette-color="primary" id="text-0"></path></svg></g></svg></g></svg></g></svg></g></svg></g></svg></g></svg></g><path d="M130.419 41.215L130.419 0 377.619 0 377.619 247.2 130.419 247.2 130.419 205.985 144.196 205.985 144.196 233.423 363.842 233.423 363.842 13.777 144.196 13.777 144.196 41.215Z" fill="#000000" stroke="transparent" data-fill-palette-color="primary"></path></svg></g></svg><rect width="395.52" height="247.2" fill="none" stroke="none" visibility="hidden"></rect></g></svg></g></svg>